<?xml version="1.0" encoding="UTF-8"?> <svg xmlns="http://www.w3.org/2000/svg" width="134" height="56" viewBox="0 0 134 56" fill="none"><g clip-path="url(#clip0_353_67)"><path d="M22.5751 -0.00649054L0.000488281 20.6069L4.13396 25.1337L26.7085 4.52024L22.5751 -0.00649054Z" fill="#ED6B06"></path><path d="M56.8599 29.39V6.55005H62.9399V23.7901H74.9699V29.39H56.8599Z" fill="white"></path><path d="M83.7197 6.55005H77.6396V29.4H83.7197V6.55005Z" fill="white"></path><path d="M30.12 32.4102H24.04V55.2602H30.12V32.4102Z" fill="white"></path><path d="M13.35 32.4102H7.27002V55.2602H13.35V32.4102Z" fill="white"></path><path d="M95.1999 29.39V12.12H86.3799V6.55005H110.09V12.12H101.28V29.39H95.1999Z" fill="white"></path><path d="M45.8298 55.7901C38.5698 55.7901 33.0898 50.6501 33.0898 43.8401C33.0898 37.0301 38.5698 31.8401 45.8298 31.8401C53.0898 31.8401 58.5598 36.9801 58.5598 43.8401C58.5598 50.7001 53.0898 55.7901 45.8298 55.7901ZM45.8298 37.2601C44.9475 37.2039 44.0633 37.335 43.2351 37.6447C42.407 37.9544 41.6538 38.4358 41.0248 39.0572C40.3959 39.6785 39.9055 40.4259 39.5858 41.2502C39.2661 42.0745 39.1243 42.9571 39.1698 43.8401C39.1242 44.7226 39.2659 45.6048 39.5857 46.4287C39.9055 47.2525 40.3961 47.9993 41.0252 48.6199C41.6543 49.2405 42.4077 49.7209 43.2358 50.0295C44.0639 50.338 44.948 50.4677 45.8298 50.4101C46.7109 50.4663 47.5938 50.3355 48.4207 50.0262C49.2476 49.717 49.9998 49.2364 50.6278 48.616C51.2558 47.9955 51.7455 47.2492 52.0647 46.4261C52.3839 45.603 52.5254 44.7217 52.4798 43.8401C52.5268 42.9576 52.3864 42.0752 52.0679 41.2509C51.7493 40.4266 51.2599 39.6791 50.6317 39.0575C50.0035 38.436 49.2509 37.9544 48.4232 37.6446C47.5956 37.3348 46.7118 37.2038 45.8298 37.2601Z" fill="white"></path><path d="M71.9998 55.7901C64.6898 55.7901 60.3198 51.3901 60.3198 44.0301V32.3901H66.3998V44.0701C66.3998 48.2001 68.2798 50.3001 71.9998 50.3001C75.7198 50.3001 77.5998 48.2001 77.5998 44.0701V32.3901H83.6798V44.0001C83.7198 51.3901 79.3498 55.7901 71.9998 55.7901Z" fill="white"></path><path d="M98.22 55.7901C94.0674 55.9543 89.9851 54.683 86.66 52.1901L86.23 51.8701L89.14 47.0701L89.66 47.4201C92.2938 49.3596 95.4894 50.385 98.76 50.3401C101.36 50.3401 104.13 49.7801 104.13 48.2201C104.13 47.5601 103.99 47.0501 102.19 46.8501L94.9 46.0001C89.75 45.4101 87.24 43.1701 87.24 39.1401C87.24 34.6501 91.33 31.8501 97.9 31.8501C102.67 31.8501 106.05 32.8501 109.19 35.1801L109.63 35.5101L106.63 40.0901L106.13 39.7501C103.716 38.0817 100.822 37.2493 97.89 37.3801C94.8 37.3801 93.23 37.9601 93.23 39.1001C93.23 39.7101 93.59 40.0501 95.53 40.2801L102.04 41.0301C107.35 41.6601 110.04 44.0301 110.04 48.1201C110.05 53.0001 105.74 55.7901 98.22 55.7901Z" fill="white"></path><path d="M47.6698 15.1301H26.0298V20.8201H47.6698V15.1301Z" fill="white"></path><path d="M28.3599 40.9702H7.91992V46.6502H28.3599V40.9702Z" fill="white"></path><path d="M33.0996 29.39V6.55005H53.6096V12.16H39.1896V23.71H53.6096V29.39H33.0996Z" fill="white"></path><path d="M127.78 15.1301H110.09V20.8201H127.78V15.1301Z" fill="white"></path><path d="M113.22 29.39V6.55005H133.72V12.16H119.3V23.71H133.72V29.39H113.22Z" fill="white"></path><path d="M127.77 40.99H113.21V46.67H127.77V40.99Z" fill="white"></path><path d="M113.22 55.2602V32.4102H133.72V38.0202H119.3V49.5802H133.72V55.2602H113.22Z" fill="white"></path></g><defs><clipPath id="clip0_353_67"><rect width="133.72" height="55.79" fill="white"></rect></clipPath></defs></svg> 